inDegrees=yes
name=ik_S53_A10_T01
DataType=double
version=3
OpenSimVersion=4.3-2021-08-27-4bc7ad9
endheader
time	pelvis_tilt	pelvis_list	pelvis_rotation	pelvis_tx	pelvis_ty	pelvis_tz	hip_flexion_r	hip_adduction_r	hip_rotation_r	knee_angle_r	knee_angle_r_beta	ankle_angle_r	subtalar_angle_r	mtp_angle_r	hip_flexion_l	hip_adduction_l	hip_rotation_l	knee_angle_l	knee_angle_l_beta	ankle_angle_l	subtalar_angle_l	mtp_angle_l	lumbar_extension	lumbar_bending	lumbar_rotation	arm_flex_r	arm_add_r	arm_rot_r	elbow_flex_r	pro_sup_r	wrist_flex_r	wrist_dev_r	arm_flex_l	arm_add_l	arm_rot_l	elbow_flex_l	pro_sup_l	wrist_flex_l	wrist_dev_l
12.33999999999983	-1.551287640411351	-1.66816085936767	34.12177040023559	0	0.9399999999999999	0	43.74334247231513	-10.00436990596587	-9.986956549174057	54.19843208679549	0.9459410893331225	0	0	0	43.74334247231513	-10.00436990596587	-9.986956549174057	54.19843208679549	0.9459410893331225	0	0	0	-2.011429477643358	-0.4859217603853944	0.8967220054909575	35.14978745702165	5.540610669893705	17.02666658153256	21.00530982307255	65.66989782302703	0	0	39.63346362761114	1.937441490860662	9.808889738580838	17.52804793861435	83.32462002333564	0	0
12.35999999999983	-1.600522152552922	-1.701737810906588	33.99837989047865	0	0.9399999999999999	0	43.74418954257938	-10.00435960087164	-9.986976268934297	54.19879305173762	0.9459473893598469	0	0	0	43.74418954257938	-10.00435960087164	-9.986976268934297	54.19879305173762	0.9459473893598469	0	0	0	-2.069082257432386	-0.4900692717073638	0.9721232584371464	34.74668574450089	5.691973697658359	17.06938284192389	20.08503285069499	66.32477819268404	0	0	38.37870732818957	2.200290739362979	10.56933417526285	17.54740478346435	82.96296433836699	0	0
12.37999999999982	-1.650678758210623	-1.724456891926688	33.93045072935676	0	0.9399999999999999	0	43.74486302187865	-10.00435142974252	-9.986991923361664	54.19908042407225	0.9459524049532653	0	0	0	43.74486302187865	-10.00435142974252	-9.986991923361664	54.19908042407225	0.9459524049532653	0	0	0	-2.122820706158753	-0.4817354712734966	0.9861045961261763	34.31836118201949	5.776894862282652	17.31267758268009	19.33998171319732	66.76217903869436	0	0	37.7133275537647	2.319907910817628	11.08906334246553	17.17852409079548	82.39853649404863	0	0
12.39999999999982	-1.686318453981075	-1.734879553004171	33.88427381134752	0	0.9399999999999999	0	43.74516850602236	-10.00434774975304	-9.986998991953538	54.19921152954894	0.945954693175501	0	0	0	43.74516850602236	-10.00434774975304	-9.986998991953538	54.19921152954894	0.945954693175501	0	0	0	-2.158241832154042	-0.4701477682340741	0.9797557970355665	33.79431586365757	5.801918154616784	17.71564530257605	18.89383910892937	66.81216232308208	0	0	37.0673031614419	2.439259393105902	11.48441932425678	16.87867936644086	82.00975145513681	0	0
12.41999999999982	-1.684668745759746	-1.739976667274004	33.85225703091126	0	0.9399999999999999	0	43.74553712633207	-10.00434330475468	-9.987007528032406	54.19936949752887	0.9459574502368634	0	0	0	43.74553712633207	-10.00434330475468	-9.987007528032406	54.19936949752887	0.9459574502368634	0	0	0	-2.160497911276166	-0.4737007934971804	0.9506981941256664	33.22885470306126	5.783086121264234	18.09924830679133	18.47847284187523	66.80037106430724	0	0	36.53963643556154	2.461285671083201	11.68165792749084	16.85106459862132	81.74676259390468	0	0
12.43999999999982	-1.67835659027451	-1.759336850527244	33.84380832483274	0	0.9399999999999999	0	43.74636012101644	-10.00433335125311	-9.987026627087888	54.19972086325998	0.9459635827257499	0	0	0	43.74636012101644	-10.00433335125311	-9.987026627087888	54.19972086325998	0.9459635827257499	0	0	0	-2.166507987401225	-0.4925826759486934	0.9352099280603769	33.22624616179261	5.87874452967121	18.03596337106378	17.56283091359706	67.19560878553737	0	0	36.14491408111478	2.513273000681351	11.61567644404798	16.43790767342256	81.68772608269239	0	0
12.45999999999982	-1.62624992295862	-1.809523406838533	33.83083160690297	0	0.9399999999999999	0	43.74708775906229	-10.00432456185421	-9.987043503950982	54.20003147024067	0.9459690038402427	0	0	0	43.74708775906229	-10.00432456185421	-9.987043503950982	54.20003147024067	0.9459690038402427	0	0	0	-2.152961157463196	-0.5597429656519665	0.8698229162357058	32.70221392126334	5.922960906539031	18.28367127211117	17.30312231933117	67.47100681982474	0	0	35.73804668905058	2.46422897162068	11.45072906408854	15.57003633434655	82.21277893653031	0	0
12.47999999999982	-1.627788840992334	-1.823890822023194	33.86489073791284	0	0.9399999999999999	0	43.74764629746417	-10.00431782646463	-9.987056446439791	54.20027007508423	0.9459731682803739	0	0	0	43.74764629746417	-10.00431782646463	-9.987056446439791	54.20027007508423	0.9459731682803739	0	0	0	-2.16340082001056	-0.5685663111229624	0.8387088812172319	32.25393149998391	5.829893886534544	18.46705682391487	17.05616794142133	67.82350014707767	0	0	35.41027199765772	2.439853093415714	11.31302944244657	15.56107839053799	82.61053895894155	0	0
12.49999999999982	-1.620953153195704	-1.851773703052933	33.88961279548149	0	0.9399999999999999	0	43.74804032603719	-10.00431309427663	-9.987065554200932	54.20043886988193	0.9459761143053541	0	0	0	43.74804032603719	-10.00431309427663	-9.987065554200932	54.20043886988193	0.9459761143053541	0	0	0	-2.173994343853974	-0.5939251737966137	0.8185862566674541	31.5670211802586	5.731069469305442	18.51670509299021	17.02131097066783	68.26640605766191	0	0	34.68562327971518	2.249235050964333	11.25510353423002	15.68427835648015	82.94899781443195	0	0
12.51999999999982	-1.615871465810413	-1.879902938406347	33.85555467114457	0	0.9399999999999999	0	43.7487502705419	-10.00430455443353	-9.987081983915646	54.20074232134713	0.9459814105325418	0	0	0	43.7487502705419	-10.00430455443353	-9.987081983915646	54.20074232134713	0.9459814105325418	0	0	0	-2.184762775205998	-0.6217659555943753	0.8382960983107259	31.30911913651261	5.755355620531134	18.36683981627851	16.55121566524779	68.82947668379151	0	0	34.66539400816815	2.295718359578261	11.28721144434867	15.13879879132001	83.21629489583735	0	0
12.53999999999982	-1.601255351004201	-1.905088354773089	33.78579194262526	0	0.9399999999999999	0	43.74902091596519	-10.00430132109383	-9.987088219734849	54.20085867880316	0.9459834413532588	0	0	0	43.74902091596519	-10.00430132109383	-9.987088219734849	54.20085867880316	0.9459834413532588	0	0	0	-2.184367267648673	-0.6551883900606813	0.9088110650151986	31.0627267321021	5.758246599734041	18.23516995447621	16.68987316963936	68.92514143417874	0	0	33.80057512546502	2.130133829381706	11.81463574234284	15.0534965484534	83.17498162467732	0	0
12.55999999999982	-1.58498589909944	-1.906431593558793	33.75100315376376	0	0.9399999999999999	0	43.74941277806725	-10.0042966229811	-9.987097270614715	54.20102650251017	0.9459863704295091	0	0	0	43.74941277806725	-10.0042966229811	-9.987097270614715	54.20102650251017	0.9459863704295091	0	0	0	-2.169899657846676	-0.6691016963002198	0.9610807418505004	30.7662876759289	5.720899568879644	18.03282477629141	16.39835039965281	69.32034361184992	0	-1.736030511307373e-50	33.35324445951098	2.048366613122675	12.11699625812536	15.31032473766061	82.99180630221048	0	-1.736030511307373e-50
12.57999999999982	-1.576513168587155	-1.937134173815396	33.71217979736257	0	0.9399999999999999	0	43.75012708084373	-10.00428804641372	-9.987113788507861	54.20133167686485	0.945991696726791	0	0	0	43.75012708084373	-10.00428804641372	-9.987113788507861	54.20133167686485	0.945991696726791	0	0	0	-2.178740276613877	-0.702278855269086	0.9895528040733857	30.57132355164236	5.771411206192761	17.79214381004105	15.52656306749763	70.0361399567517	0	0	33.02019578036286	1.980633389213148	12.26992546174062	15.25152472666609	83.03597569999363	0	0
12.59999999999982	-1.564758584144137	-1.955063355306325	33.70487266919393	0	0.9399999999999999	0	43.75086321498053	-10.00427922217947	-9.987130797100166	54.20164627168282	0.9459971874421741	0	0	0	43.75086321498053	-10.00427922217947	-9.987130797100166	54.20164627168282	0.9459971874421741	0	0	0	-2.178050982306352	-0.725694496562559	1.015867583145671	30.37938404888214	5.752902797334183	17.6237063215415	15.20911741911755	70.47931818910234	0	0	32.7485609653849	1.964257459929739	12.320527630028	15.07513156444602	83.3272494269427	0	0
12.61999999999982	-1.555707957532612	-1.947305871406841	33.69324823423196	0	0.9399999999999999	0	43.7511952240812	-10.00427527136958	-9.987138432599142	54.20178900785992	0.9459996786584263	0	0	0	43.7511952240812	-10.00427527136958	-9.987138432599142	54.20178900785992	0.9459996786584263	0	0	0	-2.165705837224778	-0.7253306824309784	1.032194455869496	30.16286174280587	5.727279329276634	17.60725568897647	15.01094404035945	70.75099586510404	0	0	32.4215164781026	1.985969466553278	12.38851942259509	14.9493702981586	83.58749014258235	0	0
12.63999999999982	-1.542076382532134	-1.957481933407233	33.71831494107958	0	0.9399999999999999	0	43.7515982518962	-10.0042704914939	-9.987147681629724	54.20196275128561	0.9460027110532583	0	0	0	43.7515982518962	-10.0042704914939	-9.987147681629724	54.20196275128561	0.9460027110532583	0	0	0	-2.159480826157194	-0.7425341619214302	1.051321155557812	29.97417501607658	5.721804127722397	17.55175344969713	14.78448747009232	71.08731504829781	0	0	32.37215142618958	2.038937655853091	12.43547860814333	14.54882307231754	83.89378466748811	0	0
12.65999999999982	-1.546696789879	-1.968483927615289	33.71893538050355	0	0.9399999999999999	0	43.7519522951538	-10.0042662762925	-9.987155828606245	54.20211470739918	0.9460053631877585	0	0	0	43.7519522951538	-10.0042662762925	-9.987155828606245	54.20211470739918	0.9460053631877585	0	0	0	-2.169183508061908	-0.7496694632130699	1.060060993867982	29.81982011074506	5.705717589192217	17.55603129640953	14.59352321791376	71.31554548258272	0	0	32.14818230734986	2.057606175185472	12.49623832396265	14.4054718544601	84.04708796623474	0	0
12.67999999999982	-1.561246390684366	-1.977525737698488	33.70950018474039	0	0.9399999999999999	0	43.75239458062727	-10.00426100381168	-9.987166015751612	54.20230421365002	0.9460086706957888	0	0	0	43.75239458062727	-10.00426100381168	-9.987166015751612	54.20230421365002	0.9460086706957888	0	0	0	-2.185663963564758	-0.7505307836795865	1.082529657589757	29.72056399088357	5.696247420131947	17.47698512640446	14.36055854303111	71.64619740451545	0	0	31.89758779366232	2.088574079269354	12.63605288112955	14.34085804243796	83.90447623394263	0	0
